<svg id="visual" viewBox="0 0 900 600" width="900" height="600" xmlns="http://www.w3.org/2000/svg" xmlns:xlink="http://www.w3.org/1999/xlink" version="1.1"><g stroke-width="1" stroke-linejoin="bevel"><path d="M472 342L375.5 307L420 366Z" fill="#69777e" stroke="#69777e"></path><path d="M472 342L486 245L375.5 307Z" fill="#243138" stroke="#243138"></path><path d="M375.5 307L380.5 395L420 366Z" fill="#1a272d" stroke="#1a272d"></path><path d="M420 366L522.5 446L472 342Z" fill="#69777e" stroke="#69777e"></path><path d="M486 245L333.5 233L375.5 307Z" fill="#515f66" stroke="#515f66"></path><path d="M375.5 307L242 274L380.5 395Z" fill="#515f66" stroke="#515f66"></path><path d="M380.5 395L522.5 446L420 366Z" fill="#45535a" stroke="#45535a"></path><path d="M472 342L592.5 303L486 245Z" fill="#5d6b72" stroke="#5d6b72"></path><path d="M522.5 446L592.5 303L472 342Z" fill="#000000" stroke="#000000"></path><path d="M592.5 303L537.5 185L486 245Z" fill="#1a272d" stroke="#1a272d"></path><path d="M486 245L322.5 137L333.5 233Z" fill="#1a272d" stroke="#1a272d"></path><path d="M333.5 233L242 274L375.5 307Z" fill="#1a272d" stroke="#1a272d"></path><path d="M428 58L322.5 137L486 245Z" fill="#021319" stroke="#021319"></path><path d="M228 138L190 234L242 274Z" fill="#000000" stroke="#000000"></path><path d="M296.5 481L405 522L380.5 395Z" fill="#101d23" stroke="#101d23"></path><path d="M380.5 395L405 522L522.5 446Z" fill="#000000" stroke="#000000"></path><path d="M187 365L296.5 481L380.5 395Z" fill="#000000" stroke="#000000"></path><path d="M649 392L656 265L592.5 303Z" fill="#2f3c43" stroke="#2f3c43"></path><path d="M592.5 303L656 265L537.5 185Z" fill="#000000" stroke="#000000"></path><path d="M673 454L649 392L522.5 446Z" fill="#021319" stroke="#021319"></path><path d="M522.5 446L649 392L592.5 303Z" fill="#1a272d" stroke="#1a272d"></path><path d="M405 522L531.5 536L522.5 446Z" fill="#5d6b72" stroke="#5d6b72"></path><path d="M139.5 312L187 365L242 274Z" fill="#2f3c43" stroke="#2f3c43"></path><path d="M242 274L187 365L380.5 395Z" fill="#021319" stroke="#021319"></path><path d="M656 265L609.5 147L537.5 185Z" fill="#5d6b72" stroke="#5d6b72"></path><path d="M537.5 185L428 58L486 245Z" fill="#3a474e" stroke="#3a474e"></path><path d="M228 138L242 274L333.5 233Z" fill="#2f3c43" stroke="#2f3c43"></path><path d="M493 0L428 58L537.5 185Z" fill="#69777e" stroke="#69777e"></path><path d="M322.5 137L228 138L333.5 233Z" fill="#5d6b72" stroke="#5d6b72"></path><path d="M235 0L228 138L322.5 137Z" fill="#69777e" stroke="#69777e"></path><path d="M531.5 536L673 454L522.5 446Z" fill="#69777e" stroke="#69777e"></path><path d="M828.5 257L774.5 211L656 265Z" fill="#000000" stroke="#000000"></path><path d="M85.5 405L183 459L187 365Z" fill="#3a474e" stroke="#3a474e"></path><path d="M187 365L183 459L296.5 481Z" fill="#45535a" stroke="#45535a"></path><path d="M345.5 600L474 600L405 522Z" fill="#101d23" stroke="#101d23"></path><path d="M133.5 163L139.5 312L190 234Z" fill="#69777e" stroke="#69777e"></path><path d="M190 234L139.5 312L242 274Z" fill="#021319" stroke="#021319"></path><path d="M405 522L474 600L531.5 536Z" fill="#101d23" stroke="#101d23"></path><path d="M531.5 536L594.5 600L673 454Z" fill="#69777e" stroke="#69777e"></path><path d="M345.5 600L405 522L296.5 481Z" fill="#45535a" stroke="#45535a"></path><path d="M210 600L345.5 600L296.5 481Z" fill="#3a474e" stroke="#3a474e"></path><path d="M609.5 147L493 0L537.5 185Z" fill="#3a474e" stroke="#3a474e"></path><path d="M428 58L317.5 0L322.5 137Z" fill="#45535a" stroke="#45535a"></path><path d="M656 265L715 170L609.5 147Z" fill="#243138" stroke="#243138"></path><path d="M609.5 147L600.5 0L493 0Z" fill="#2f3c43" stroke="#2f3c43"></path><path d="M774.5 211L715 170L656 265Z" fill="#5d6b72" stroke="#5d6b72"></path><path d="M128.5 0L133.5 163L228 138Z" fill="#45535a" stroke="#45535a"></path><path d="M228 138L133.5 163L190 234Z" fill="#45535a" stroke="#45535a"></path><path d="M474 600L594.5 600L531.5 536Z" fill="#000000" stroke="#000000"></path><path d="M493 0L317.5 0L428 58Z" fill="#021319" stroke="#021319"></path><path d="M774.5 211L720 144L715 170Z" fill="#69777e" stroke="#69777e"></path><path d="M715 170L720 144L609.5 147Z" fill="#3a474e" stroke="#3a474e"></path><path d="M139.5 312L85.5 405L187 365Z" fill="#515f66" stroke="#515f66"></path><path d="M183 459L210 600L296.5 481Z" fill="#5d6b72" stroke="#5d6b72"></path><path d="M0 286L85.5 405L139.5 312Z" fill="#1a272d" stroke="#1a272d"></path><path d="M653 0L600.5 0L609.5 147Z" fill="#1a272d" stroke="#1a272d"></path><path d="M123.5 600L210 600L183 459Z" fill="#2f3c43" stroke="#2f3c43"></path><path d="M816.5 371L656 265L649 392Z" fill="#2f3c43" stroke="#2f3c43"></path><path d="M594.5 600L657 600L673 454Z" fill="#000000" stroke="#000000"></path><path d="M673 454L816.5 371L649 392Z" fill="#2f3c43" stroke="#2f3c43"></path><path d="M317.5 0L235 0L322.5 137Z" fill="#000000" stroke="#000000"></path><path d="M657 600L743.5 506L673 454Z" fill="#1a272d" stroke="#1a272d"></path><path d="M720 144L653 0L609.5 147Z" fill="#021319" stroke="#021319"></path><path d="M745.5 0L653 0L720 144Z" fill="#000000" stroke="#000000"></path><path d="M743.5 506L816.5 371L673 454Z" fill="#000000" stroke="#000000"></path><path d="M85.5 405L75.5 513L183 459Z" fill="#5d6b72" stroke="#5d6b72"></path><path d="M816.5 371L828.5 257L656 265Z" fill="#2f3c43" stroke="#2f3c43"></path><path d="M815.5 69L745.5 0L720 144Z" fill="#101d23" stroke="#101d23"></path><path d="M75.5 513L123.5 600L183 459Z" fill="#1a272d" stroke="#1a272d"></path><path d="M0 226L139.5 312L133.5 163Z" fill="#45535a" stroke="#45535a"></path><path d="M0 226L0 286L139.5 312Z" fill="#5d6b72" stroke="#5d6b72"></path><path d="M85.5 405L0 466L75.5 513Z" fill="#243138" stroke="#243138"></path><path d="M235 0L128.5 0L228 138Z" fill="#3a474e" stroke="#3a474e"></path><path d="M128.5 0L64.5 74L133.5 163Z" fill="#45535a" stroke="#45535a"></path><path d="M0 130L0 226L133.5 163Z" fill="#3a474e" stroke="#3a474e"></path><path d="M743.5 506L900 437L816.5 371Z" fill="#101d23" stroke="#101d23"></path><path d="M657 600L763.5 600L743.5 506Z" fill="#243138" stroke="#243138"></path><path d="M0 286L0 431L85.5 405Z" fill="#45535a" stroke="#45535a"></path><path d="M75.5 513L0 600L123.5 600Z" fill="#2f3c43" stroke="#2f3c43"></path><path d="M815.5 69L720 144L774.5 211Z" fill="#1a272d" stroke="#1a272d"></path><path d="M0 431L0 466L85.5 405Z" fill="#2f3c43" stroke="#2f3c43"></path><path d="M900 178L815.5 69L774.5 211Z" fill="#243138" stroke="#243138"></path><path d="M0 0L0 130L64.5 74Z" fill="#2f3c43" stroke="#2f3c43"></path><path d="M64.5 74L0 130L133.5 163Z" fill="#69777e" stroke="#69777e"></path><path d="M816.5 371L900 275L828.5 257Z" fill="#101d23" stroke="#101d23"></path><path d="M828.5 257L900 178L774.5 211Z" fill="#5d6b72" stroke="#5d6b72"></path><path d="M900 437L900 275L816.5 371Z" fill="#021319" stroke="#021319"></path><path d="M900 527L900 437L743.5 506Z" fill="#101d23" stroke="#101d23"></path><path d="M900 275L900 178L828.5 257Z" fill="#000000" stroke="#000000"></path><path d="M900 178L900 119L815.5 69Z" fill="#021319" stroke="#021319"></path><path d="M815.5 69L900 0L745.5 0Z" fill="#3a474e" stroke="#3a474e"></path><path d="M0 466L0 600L75.5 513Z" fill="#45535a" stroke="#45535a"></path><path d="M763.5 600L900 527L743.5 506Z" fill="#45535a" stroke="#45535a"></path><path d="M128.5 0L0 0L64.5 74Z" fill="#69777e" stroke="#69777e"></path><path d="M763.5 600L900 600L900 527Z" fill="#101d23" stroke="#101d23"></path><path d="M900 119L900 0L815.5 69Z" fill="#69777e" stroke="#69777e"></path></g></svg>